<svg width="512" height="512" viewBox="0 0 512 512" fill="none" xmlns="http://www.w3.org/2000/svg">
<rect width="512" height="512" rx="75" fill="#16a34a"/>
<g transform="translate(128, 128)">
  <!-- Scissors icon -->
  <path d="M96 128a32 32 0 1 1 32-32 32 32 0 0 1-32 32zm0-48a16 16 0 1 0 16 16 16 16 0 0 0-16-16z" fill="white"/>
  <path d="M96 224a32 32 0 1 1 32-32 32 32 0 0 1-32 32zm0-48a16 16 0 1 0 16 16 16 16 0 0 0-16-16z" fill="white"/>
  <path d="M144 144h96v16h-96z" fill="white"/>
  <path d="M144 176h96v16h-96z" fill="white"/>
  
  <!-- Comb -->
  <path d="M208 64h16v32h-16z" fill="white"/>
  <path d="M224 80h8v16h-8z" fill="white"/>
  <path d="M232 88h8v16h-8z" fill="white"/>
  <path d="M240 80h8v16h-8z" fill="white"/>
  <path d="M248 88h8v16h-8z" fill="white"/>
  <path d="M200 96h64v16h-64z" fill="white"/>
  
  <!-- Text -->
  <text x="128" y="240" fill="white" font-family="Arial, sans-serif" font-size="28" font-weight="bold" text-anchor="middle">BARBERÍA</text>
  <text x="128" y="270" fill="white" font-family="Arial, sans-serif" font-size="22" text-anchor="middle">DANY</text>
</g>
</svg>